<?xml version="1.0" encoding="UTF-8" standalone="no"?>
<!DOCTYPE svg PUBLIC "-//W3C//DTD SVG 1.1//EN"
 "http://www.w3.org/Graphics/SVG/1.1/DTD/svg11.dtd">
<!-- Generated by graphviz version 2.34.0 (20140110.0949)
 -->
<!-- Title: snakemake_dag Pages: 1 -->
<svg width="366pt" height="332pt"
 viewBox="0.00 0.00 366.00 332.00" xmlns="http://www.w3.org/2000/svg" xmlns:xlink="http://www.w3.org/1999/xlink">
<g id="graph0" class="graph" transform="scale(1 1) rotate(0) translate(4 328)">
<title>snakemake_dag</title>
<polygon fill="white" stroke="white" points="-4,4 -4,-328 362,-328 362,4 -4,4"/>
<!-- 0 -->
<g id="node1" class="node"><title>0</title>
<path fill="none" stroke="#59d856" stroke-width="2" d="M64,-324C64,-324 12,-324 12,-324 6,-324 0,-318 0,-312 0,-312 0,-300 0,-300 0,-294 6,-288 12,-288 12,-288 64,-288 64,-288 70,-288 76,-294 76,-300 76,-300 76,-312 76,-312 76,-318 70,-324 64,-324"/>
<text text-anchor="middle" x="38" y="-309" font-family="sans" font-size="10.00">assembly</text>
<text text-anchor="middle" x="38" y="-298" font-family="sans" font-size="10.00">sample: 103</text>
</g>
<!-- 2 -->
<g id="node3" class="node"><title>2</title>
<path fill="none" stroke="#56a9d8" stroke-width="2" d="M216,-252C216,-252 142,-252 142,-252 136,-252 130,-246 130,-240 130,-240 130,-228 130,-228 130,-222 136,-216 142,-216 142,-216 216,-216 216,-216 222,-216 228,-222 228,-228 228,-228 228,-240 228,-240 228,-246 222,-252 216,-252"/>
<text text-anchor="middle" x="179" y="-231.5" font-family="sans" font-size="10.00">compose_merge</text>
</g>
<!-- 0&#45;&gt;2 -->
<g id="edge6" class="edge"><title>0&#45;&gt;2</title>
<path fill="none" stroke="grey" stroke-width="2" d="M72.4925,-287.876C91.4403,-278.469 115.132,-266.708 135.356,-256.667"/>
<polygon fill="grey" stroke="grey" points="136.974,-259.771 144.375,-252.19 133.862,-253.502 136.974,-259.771"/>
</g>
<!-- 1 -->
<g id="node2" class="node"><title>1</title>
<path fill="none" stroke="#d8ac56" stroke-width="2" d="M194,-36C194,-36 164,-36 164,-36 158,-36 152,-30 152,-24 152,-24 152,-12 152,-12 152,-6 158,-0 164,-0 164,-0 194,-0 194,-0 200,-0 206,-6 206,-12 206,-12 206,-24 206,-24 206,-30 200,-36 194,-36"/>
<text text-anchor="middle" x="179" y="-15.5" font-family="sans" font-size="10.00">all</text>
</g>
<!-- 5 -->
<g id="node6" class="node"><title>5</title>
<path fill="none" stroke="#d85656" stroke-width="2" d="M220.25,-180C220.25,-180 137.75,-180 137.75,-180 131.75,-180 125.75,-174 125.75,-168 125.75,-168 125.75,-156 125.75,-156 125.75,-150 131.75,-144 137.75,-144 137.75,-144 220.25,-144 220.25,-144 226.25,-144 232.25,-150 232.25,-156 232.25,-156 232.25,-168 232.25,-168 232.25,-174 226.25,-180 220.25,-180"/>
<text text-anchor="middle" x="179" y="-159.5" font-family="sans" font-size="10.00">merge_assemblies</text>
</g>
<!-- 2&#45;&gt;5 -->
<g id="edge7" class="edge"><title>2&#45;&gt;5</title>
<path fill="none" stroke="grey" stroke-width="2" d="M179,-215.697C179,-207.983 179,-198.712 179,-190.112"/>
<polygon fill="grey" stroke="grey" points="182.5,-190.104 179,-180.104 175.5,-190.104 182.5,-190.104"/>
</g>
<!-- 3 -->
<g id="node4" class="node"><title>3</title>
<path fill="none" stroke="#59d856" stroke-width="2" d="M158,-324C158,-324 106,-324 106,-324 100,-324 94,-318 94,-312 94,-312 94,-300 94,-300 94,-294 100,-288 106,-288 106,-288 158,-288 158,-288 164,-288 170,-294 170,-300 170,-300 170,-312 170,-312 170,-318 164,-324 158,-324"/>
<text text-anchor="middle" x="132" y="-309" font-family="sans" font-size="10.00">assembly</text>
<text text-anchor="middle" x="132" y="-298" font-family="sans" font-size="10.00">sample: 102</text>
</g>
<!-- 3&#45;&gt;2 -->
<g id="edge3" class="edge"><title>3&#45;&gt;2</title>
<path fill="none" stroke="grey" stroke-width="2" d="M143.618,-287.697C149.139,-279.474 155.847,-269.483 161.932,-260.421"/>
<polygon fill="grey" stroke="grey" points="164.847,-262.358 167.516,-252.104 159.035,-258.456 164.847,-262.358"/>
</g>
<!-- 4 -->
<g id="node5" class="node"><title>4</title>
<path fill="none" stroke="#59d856" stroke-width="2" d="M252,-324C252,-324 200,-324 200,-324 194,-324 188,-318 188,-312 188,-312 188,-300 188,-300 188,-294 194,-288 200,-288 200,-288 252,-288 252,-288 258,-288 264,-294 264,-300 264,-300 264,-312 264,-312 264,-318 258,-324 252,-324"/>
<text text-anchor="middle" x="226" y="-309" font-family="sans" font-size="10.00">assembly</text>
<text text-anchor="middle" x="226" y="-298" font-family="sans" font-size="10.00">sample: 101</text>
</g>
<!-- 4&#45;&gt;2 -->
<g id="edge5" class="edge"><title>4&#45;&gt;2</title>
<path fill="none" stroke="grey" stroke-width="2" d="M214.382,-287.697C208.861,-279.474 202.153,-269.483 196.068,-260.421"/>
<polygon fill="grey" stroke="grey" points="198.965,-258.456 190.484,-252.104 193.153,-262.358 198.965,-258.456"/>
</g>
<!-- 6 -->
<g id="node7" class="node"><title>6</title>
<path fill="none" stroke="#afd856" stroke-width="2" d="M174.25,-108C174.25,-108 79.75,-108 79.75,-108 73.75,-108 67.75,-102 67.75,-96 67.75,-96 67.75,-84 67.75,-84 67.75,-78 73.75,-72 79.75,-72 79.75,-72 174.25,-72 174.25,-72 180.25,-72 186.25,-78 186.25,-84 186.25,-84 186.25,-96 186.25,-96 186.25,-102 180.25,-108 174.25,-108"/>
<text text-anchor="middle" x="127" y="-87.5" font-family="sans" font-size="10.00">compare_assemblies</text>
</g>
<!-- 5&#45;&gt;6 -->
<g id="edge8" class="edge"><title>5&#45;&gt;6</title>
<path fill="none" stroke="grey" stroke-width="2" d="M166.146,-143.697C159.975,-135.389 152.463,-125.277 145.676,-116.141"/>
<polygon fill="grey" stroke="grey" points="148.479,-114.045 139.706,-108.104 142.86,-118.219 148.479,-114.045"/>
</g>
<!-- 8 -->
<g id="node9" class="node"><title>8</title>
<path fill="none" stroke="#56d8a9" stroke-width="2" d="M247,-108C247,-108 217,-108 217,-108 211,-108 205,-102 205,-96 205,-96 205,-84 205,-84 205,-78 211,-72 217,-72 217,-72 247,-72 247,-72 253,-72 259,-78 259,-84 259,-84 259,-96 259,-96 259,-102 253,-108 247,-108"/>
<text text-anchor="middle" x="232" y="-87.5" font-family="sans" font-size="10.00">diffexp</text>
</g>
<!-- 5&#45;&gt;8 -->
<g id="edge9" class="edge"><title>5&#45;&gt;8</title>
<path fill="none" stroke="grey" stroke-width="2" d="M192.101,-143.697C198.391,-135.389 206.047,-125.277 212.965,-116.141"/>
<polygon fill="grey" stroke="grey" points="215.804,-118.19 219.05,-108.104 210.223,-113.964 215.804,-118.19"/>
</g>
<!-- 6&#45;&gt;1 -->
<g id="edge1" class="edge"><title>6&#45;&gt;1</title>
<path fill="none" stroke="grey" stroke-width="2" d="M139.854,-71.6966C146.025,-63.3893 153.537,-53.2771 160.324,-44.1407"/>
<polygon fill="grey" stroke="grey" points="163.14,-46.2189 166.294,-36.1043 157.521,-42.0446 163.14,-46.2189"/>
</g>
<!-- 7 -->
<g id="node8" class="node"><title>7</title>
<path fill="none" stroke="#59d856" stroke-width="2" d="M346,-324C346,-324 294,-324 294,-324 288,-324 282,-318 282,-312 282,-312 282,-300 282,-300 282,-294 288,-288 294,-288 294,-288 346,-288 346,-288 352,-288 358,-294 358,-300 358,-300 358,-312 358,-312 358,-318 352,-324 346,-324"/>
<text text-anchor="middle" x="320" y="-309" font-family="sans" font-size="10.00">assembly</text>
<text text-anchor="middle" x="320" y="-298" font-family="sans" font-size="10.00">sample: 104</text>
</g>
<!-- 7&#45;&gt;2 -->
<g id="edge4" class="edge"><title>7&#45;&gt;2</title>
<path fill="none" stroke="grey" stroke-width="2" d="M285.508,-287.876C266.56,-278.469 242.868,-266.708 222.644,-256.667"/>
<polygon fill="grey" stroke="grey" points="224.138,-253.502 213.625,-252.19 221.026,-259.771 224.138,-253.502"/>
</g>
<!-- 8&#45;&gt;1 -->
<g id="edge2" class="edge"><title>8&#45;&gt;1</title>
<path fill="none" stroke="grey" stroke-width="2" d="M218.899,-71.6966C212.609,-63.3893 204.953,-53.2771 198.035,-44.1407"/>
<polygon fill="grey" stroke="grey" points="200.777,-41.9642 191.95,-36.1043 195.196,-46.1897 200.777,-41.9642"/>
</g>
</g>
</svg>
