<?xml version="1.0" encoding="UTF-8" standalone="no"?>
<!DOCTYPE svg PUBLIC "-//W3C//DTD SVG 1.1//EN"
 "http://www.w3.org/Graphics/SVG/1.1/DTD/svg11.dtd">
<!-- Generated by graphviz version 2.26.3 (20100126.1600)
 -->
<!-- Title: snakemake_dag Pages: 1 -->
<svg width="180pt" height="440pt"
 viewBox="0.00 0.00 180.00 440.00" xmlns="http://www.w3.org/2000/svg" xmlns:xlink="http://www.w3.org/1999/xlink">
<g id="graph1" class="graph" transform="scale(1 1) rotate(0) translate(4 436)">
<title>snakemake_dag</title>
<polygon fill="white" stroke="white" points="-4,5 -4,-436 177,-436 177,5 -4,5"/>
<!-- 5 -->
<g id="node1" class="node"><title>5</title>
<ellipse fill="none" stroke="black" cx="78" cy="-19" rx="27" ry="18.3848"/>
<text text-anchor="middle" x="78" y="-15.4" font-family="Times Roman,serif" font-size="14.00">all</text>
</g>
<!-- 4 -->
<g id="node2" class="node"><title>4</title>
<ellipse fill="none" stroke="black" cx="78" cy="-93" rx="34.8574" ry="18.3848"/>
<text text-anchor="middle" x="78" y="-89.4" font-family="Times Roman,serif" font-size="14.00">mine</text>
</g>
<!-- 4&#45;&gt;5 -->
<g id="edge2" class="edge"><title>4&#45;&gt;5</title>
<path fill="none" stroke="black" d="M78,-74.3267C78,-66.2639 78,-56.6477 78,-47.7115"/>
<polygon fill="black" stroke="black" points="81.5001,-47.6673 78,-37.6674 74.5001,-47.6674 81.5001,-47.6673"/>
</g>
<!-- 2 -->
<g id="node4" class="node"><title>2</title>
<ellipse fill="none" stroke="black" cx="78" cy="-241" rx="60.8112" ry="18.3848"/>
<text text-anchor="middle" x="78" y="-237.4" font-family="Times Roman,serif" font-size="14.00">fetch_pdfs</text>
</g>
<!-- 2&#45;&gt;4 -->
<g id="edge10" class="edge"><title>2&#45;&gt;4</title>
<path fill="none" stroke="black" d="M69.0608,-222.653C64.4593,-212.186 59.3356,-198.665 57,-186 53.9371,-169.391 53.9371,-164.609 57,-148 58.7104,-138.725 61.9161,-128.991 65.317,-120.333"/>
<polygon fill="black" stroke="black" points="68.5497,-121.675 69.1703,-111.098 62.0895,-118.979 68.5497,-121.675"/>
</g>
<!-- 3 -->
<g id="node9" class="node"><title>3</title>
<ellipse fill="none" stroke="black" cx="119" cy="-167" rx="53.2379" ry="18.3848"/>
<text text-anchor="middle" x="119" y="-163.4" font-family="Times Roman,serif" font-size="14.00">tokenize</text>
</g>
<!-- 2&#45;&gt;3 -->
<g id="edge12" class="edge"><title>2&#45;&gt;3</title>
<path fill="none" stroke="black" d="M88.1348,-222.708C92.9149,-214.08 98.7154,-203.611 103.992,-194.088"/>
<polygon fill="black" stroke="black" points="107.055,-195.782 108.84,-185.338 100.932,-192.389 107.055,-195.782"/>
</g>
<!-- 1 -->
<g id="node5" class="node"><title>1</title>
<ellipse fill="none" stroke="black" cx="78" cy="-315" rx="75.1594" ry="18.3848"/>
<text text-anchor="middle" x="78" y="-311.4" font-family="Times Roman,serif" font-size="14.00">merge_pmids</text>
</g>
<!-- 1&#45;&gt;2 -->
<g id="edge4" class="edge"><title>1&#45;&gt;2</title>
<path fill="none" stroke="black" d="M78,-296.327C78,-288.264 78,-278.648 78,-269.711"/>
<polygon fill="black" stroke="black" points="81.5001,-269.667 78,-259.667 74.5001,-269.667 81.5001,-269.667"/>
</g>
<!-- 0 -->
<g id="node7" class="node"><title>0</title>
<ellipse fill="none" stroke="black" cx="78" cy="-401" rx="77.7817" ry="31.1127"/>
<text text-anchor="middle" x="78" y="-406.4" font-family="Times Roman,serif" font-size="14.00">fetch_pmids</text>
<text text-anchor="middle" x="78" y="-388.4" font-family="Times Roman,serif" font-size="14.00">ds: adhesome</text>
</g>
<!-- 0&#45;&gt;1 -->
<g id="edge6" class="edge"><title>0&#45;&gt;1</title>
<path fill="none" stroke="black" d="M78,-369.952C78,-361.427 78,-352.221 78,-343.827"/>
<polygon fill="black" stroke="black" points="81.5001,-343.74 78,-333.74 74.5001,-343.74 81.5001,-343.74"/>
</g>
<!-- 3&#45;&gt;4 -->
<g id="edge8" class="edge"><title>3&#45;&gt;4</title>
<path fill="none" stroke="black" d="M108.865,-148.708C104.013,-139.951 98.1099,-129.296 92.7705,-119.659"/>
<polygon fill="black" stroke="black" points="95.7847,-117.877 87.8768,-110.826 89.6617,-121.27 95.7847,-117.877"/>
</g>
</g>
</svg>
