<?xml version="1.0" encoding="UTF-8" standalone="no"?>
<!-- Created with Inkscape (http://www.inkscape.org/) -->

<svg
   xmlns:dc="http://purl.org/dc/elements/1.1/"
   xmlns:cc="http://creativecommons.org/ns#"
   xmlns:rdf="http://www.w3.org/1999/02/22-rdf-syntax-ns#"
   xmlns:svg="http://www.w3.org/2000/svg"
   xmlns="http://www.w3.org/2000/svg"
   xmlns:sodipodi="http://sodipodi.sourceforge.net/DTD/sodipodi-0.dtd"
   xmlns:inkscape="http://www.inkscape.org/namespaces/inkscape"
   width="74.290588mm"
   height="9.8288574mm"
   viewBox="0 0 263.23437 34.82666"
   id="svg2"
   version="1.1"
   inkscape:version="0.91 r13725"
   sodipodi:docname="biglogo.svg">
  <defs
     id="defs4" />
  <sodipodi:namedview
     id="base"
     pagecolor="#ffffff"
     bordercolor="#666666"
     borderopacity="1.0"
     inkscape:pageopacity="0.0"
     inkscape:pageshadow="2"
     inkscape:zoom="1.979899"
     inkscape:cx="173.26643"
     inkscape:cy="24.495162"
     inkscape:document-units="px"
     inkscape:current-layer="text3336"
     showgrid="false"
     fit-margin-top="0"
     fit-margin-left="0"
     fit-margin-right="0"
     fit-margin-bottom="0"
     inkscape:window-width="1600"
     inkscape:window-height="845"
     inkscape:window-x="0"
     inkscape:window-y="27"
     inkscape:window-maximized="1" />
  <metadata
     id="metadata7">
    <rdf:RDF>
      <cc:Work
         rdf:about="">
        <dc:format>image/svg+xml</dc:format>
        <dc:type
           rdf:resource="http://purl.org/dc/dcmitype/StillImage" />
        <dc:title></dc:title>
      </cc:Work>
    </rdf:RDF>
  </metadata>
  <g
     inkscape:label="Layer 1"
     inkscape:groupmode="layer"
     id="layer1"
     transform="translate(-40.109165,-138.17274)">
    <g
       style="font-style:normal;font-weight:normal;font-size:16.25px;line-height:125%;font-family:sans-serif;letter-spacing:1px;word-spacing:0px;fill:#4d4d4d;fill-opacity:1;stroke:none;stroke-width:1px;stroke-linecap:butt;stroke-linejoin:miter;stroke-opacity:1"
       id="text3336">
      <g
         id="g3379">
        <path
           id="path3361"
           style="font-style:normal;font-variant:normal;font-weight:normal;font-stretch:normal;font-size:45px;font-family:sans-serif;-inkscape-font-specification:sans-serif;fill:#4d4d4d"
           d="m 61.224888,140.63368 0,4.32862 q -2.526856,-1.2085 -4.768067,-1.80176 -2.24121,-0.59326 -4.328613,-0.59326 -3.625488,0 -5.603027,1.40625 -1.955567,1.40625 -1.955567,3.99902 0,2.17529 1.296387,3.2959 1.31836,1.09863 4.96582,1.77978 l 2.680665,0.54932 q 4.96582,0.94482 7.316894,3.33984 2.373047,2.37305 2.373047,6.37207 0,4.76807 -3.208008,7.22901 -3.186035,2.46093 -9.360351,2.46093 -2.329102,0 -4.965821,-0.52734 -2.614746,-0.52734 -5.427246,-1.56006 l 0,-4.57031 q 2.702637,1.51611 5.29541,2.28516 2.592774,0.76904 5.097657,0.76904 3.801269,0 5.866699,-1.49414 2.065429,-1.49414 2.065429,-4.2627 0,-2.41699 -1.49414,-3.77929 -1.472168,-1.36231 -4.855957,-2.04346 l -2.702637,-0.52734 q -4.96582,-0.98877 -7.185059,-3.09815 -2.219238,-2.10937 -2.219238,-5.8667 0,-4.35058 3.054199,-6.85547 3.076172,-2.50488 8.459473,-2.50488 2.307129,0 4.702149,0.41748 2.395019,0.41748 4.899902,1.25244 z"
           inkscape:connector-curvature="0" />
        <path
           id="path3363"
           style="font-style:normal;font-variant:normal;font-weight:normal;font-stretch:normal;font-size:45px;font-family:sans-serif;-inkscape-font-specification:sans-serif;fill:#4d4d4d"
           d="m 91.404575,157.50868 0,14.85352 -4.042968,0 0,-14.72168 q 0,-3.49365 -1.362305,-5.22949 -1.362305,-1.73584 -4.086914,-1.73584 -3.273926,0 -5.163574,2.0874 -1.889649,2.0874 -1.889649,5.69092 l 0,13.90869 -4.064941,0 0,-24.60938 4.064941,0 0,3.82325 q 1.450196,-2.21924 3.405762,-3.31788 1.977539,-1.09863 4.54834,-1.09863 4.240722,0 6.416015,2.63672 2.175293,2.61475 2.175293,7.7124 z"
           inkscape:connector-curvature="0" />
        <path
           id="path3365"
           style="font-style:normal;font-variant:normal;font-weight:normal;font-stretch:normal;font-size:45px;font-family:sans-serif;-inkscape-font-specification:sans-serif;fill:#4d4d4d"
           d="m 111.69657,159.99159 q -4.8999,0 -6.78955,1.12061 -1.88965,1.1206 -1.88965,3.82324 0,2.15332 1.40625,3.42773 1.42822,1.25245 3.86719,1.25245 3.36181,0 5.3833,-2.37305 2.04345,-2.39502 2.04345,-6.3501 l 0,-0.90088 -4.02099,0 z m 8.06396,-1.66992 0,14.04053 -4.04297,0 0,-3.73535 q -1.38427,2.24121 -3.4497,3.31787 -2.06543,1.05468 -5.05371,1.05468 -3.7793,0 -6.02051,-2.10937 -2.21924,-2.13135 -2.21924,-5.69092 0,-4.15283 2.76855,-6.26221 2.79053,-2.10937 8.30567,-2.10937 l 5.66894,0 0,-0.39551 q 0,-2.79053 -1.8457,-4.30664 -1.82373,-1.53808 -5.1416,-1.53808 -2.10938,0 -4.10889,0.50537 -1.99951,0.50537 -3.84521,1.51611 l 0,-3.73535 q 2.21924,-0.85694 4.30664,-1.27442 2.0874,-0.43945 4.06494,-0.43945 5.33935,0 7.97607,2.76856 2.63672,2.76855 2.63672,8.39355 z"
           inkscape:connector-curvature="0" />
        <path
           id="path3367"
           style="font-style:normal;font-variant:normal;font-weight:normal;font-stretch:normal;font-size:45px;font-family:sans-serif;-inkscape-font-specification:sans-serif;fill:#4d4d4d"
           d="m 128.95633,138.17274 4.06494,0 0,20.19288 12.06299,-10.6128 5.16358,0 -13.05176,11.51367 13.60107,13.09571 -5.27343,0 -12.50245,-12.01905 0,12.01905 -4.06494,0 0,-34.18946 z"
           inkscape:connector-curvature="0" />
        <path
           id="path3369"
           style="font-style:normal;font-variant:normal;font-weight:normal;font-stretch:normal;font-size:45px;font-family:sans-serif;-inkscape-font-specification:sans-serif;fill:#4d4d4d"
           d="m 175.68143,159.04677 0,1.97754 -18.58887,0 q 0.26368,4.1748 2.50489,6.37207 2.26318,2.17529 6.28418,2.17529 2.3291,0 4.50439,-0.57129 2.19727,-0.57129 4.35059,-1.71387 l 0,3.82325 q -2.1753,0.92285 -4.46045,1.40625 -2.28516,0.48339 -4.63623,0.48339 -5.88867,0 -9.33838,-3.42773 -3.42774,-3.42773 -3.42774,-9.27246 0,-6.04248 3.25196,-9.58008 3.27392,-3.55957 8.81103,-3.55957 4.96582,0 7.84424,3.20801 2.90039,3.18603 2.90039,8.6792 z m -4.04297,-1.18653 q -0.0439,-3.31787 -1.86767,-5.29541 -1.80176,-1.97753 -4.79004,-1.97753 -3.38379,0 -5.42725,1.91162 -2.02148,1.91162 -2.3291,5.3833 l 14.41406,-0.022 z"
           inkscape:connector-curvature="0" />
        <path
           id="path3371"
           style="font-style:normal;font-variant:normal;font-weight:normal;font-stretch:normal;font-size:45px;font-family:sans-serif;-inkscape-font-specification:sans-serif;fill:#4d4d4d"
           d="m 202.47733,152.47694 q 1.51611,-2.72461 3.62549,-4.02099 2.10937,-1.29639 4.96582,-1.29639 3.84521,0 5.93262,2.70264 2.0874,2.68066 2.0874,7.64648 l 0,14.85352 -4.06494,0 0,-14.72168 q 0,-3.5376 -1.25245,-5.25147 -1.25244,-1.71386 -3.82324,-1.71386 -3.14209,0 -4.96582,2.0874 -1.82373,2.0874 -1.82373,5.69092 l 0,13.90869 -4.06494,0 0,-14.72168 q 0,-3.55957 -1.25244,-5.25147 -1.25244,-1.71386 -3.86719,-1.71386 -3.09814,0 -4.92187,2.10937 -1.82373,2.0874 -1.82373,5.66895 l 0,13.90869 -4.06495,0 0,-24.60938 4.06495,0 0,3.82325 q 1.38427,-2.26319 3.31787,-3.33985 1.93359,-1.07666 4.59228,-1.07666 2.68067,0 4.54834,1.36231 1.88965,1.3623 2.79053,3.95507 z"
           inkscape:connector-curvature="0" />
        <path
           id="path3373"
           style="font-style:normal;font-variant:normal;font-weight:normal;font-stretch:normal;font-size:45px;font-family:sans-serif;-inkscape-font-specification:sans-serif;fill:#4d4d4d"
           d="m 239.35868,159.99159 q -4.89991,0 -6.78955,1.12061 -1.88965,1.1206 -1.88965,3.82324 0,2.15332 1.40625,3.42773 1.42822,1.25245 3.86719,1.25245 3.36181,0 5.3833,-2.37305 2.04345,-2.39502 2.04345,-6.3501 l 0,-0.90088 -4.02099,0 z m 8.06396,-1.66992 0,14.04053 -4.04297,0 0,-3.73535 q -1.38427,2.24121 -3.4497,3.31787 -2.06543,1.05468 -5.05371,1.05468 -3.7793,0 -6.02051,-2.10937 -2.21924,-2.13135 -2.21924,-5.69092 0,-4.15283 2.76855,-6.26221 2.79053,-2.10937 8.30567,-2.10937 l 5.66894,0 0,-0.39551 q 0,-2.79053 -1.8457,-4.30664 -1.82373,-1.53808 -5.1416,-1.53808 -2.10938,0 -4.10889,0.50537 -1.99951,0.50537 -3.84521,1.51611 l 0,-3.73535 q 2.21924,-0.85694 4.30664,-1.27442 2.0874,-0.43945 4.06494,-0.43945 5.33935,0 7.97607,2.76856 2.63672,2.76855 2.63672,8.39355 z"
           inkscape:connector-curvature="0" />
        <path
           id="path3375"
           style="font-style:normal;font-variant:normal;font-weight:normal;font-stretch:normal;font-size:45px;font-family:sans-serif;-inkscape-font-specification:sans-serif;fill:#4d4d4d"
           d="m 256.61844,138.17274 4.06494,0 0,20.19288 12.06299,-10.6128 5.16358,0 -13.05176,11.51367 13.60107,13.09571 -5.27343,0 -12.50245,-12.01905 0,12.01905 -4.06494,0 0,-34.18946 z"
           inkscape:connector-curvature="0" />
        <path
           id="path3377"
           style="font-style:normal;font-variant:normal;font-weight:normal;font-stretch:normal;font-size:45px;font-family:sans-serif;-inkscape-font-specification:sans-serif;fill:#4d4d4d"
           d="m 303.34354,159.04677 0,1.97754 -18.58887,0 q 0.26367,4.1748 2.50489,6.37207 2.26318,2.17529 6.28418,2.17529 2.3291,0 4.50439,-0.57129 2.19727,-0.57129 4.35059,-1.71387 l 0,3.82325 q -2.1753,0.92285 -4.46045,1.40625 -2.28516,0.48339 -4.63623,0.48339 -5.88868,0 -9.33838,-3.42773 -3.42774,-3.42773 -3.42774,-9.27246 0,-6.04248 3.25196,-9.58008 3.27392,-3.55957 8.81103,-3.55957 4.96582,0 7.84424,3.20801 2.90039,3.18603 2.90039,8.6792 z m -4.04297,-1.18653 q -0.0439,-3.31787 -1.86767,-5.29541 -1.80176,-1.97753 -4.79004,-1.97753 -3.38379,0 -5.42725,1.91162 -2.02148,1.91162 -2.3291,5.3833 l 14.41406,-0.022 z"
           inkscape:connector-curvature="0" />
      </g>
    </g>
    <g
       id="g3354"
       transform="matrix(0.05703454,-0.32943954,0.32943954,0.05703454,24.362893,174.16199)">
      <ellipse
         id="path3761"
         style="fill:#535353;fill-opacity:1;stroke-width:10;stroke-linecap:round;stroke-linejoin:round;stroke-miterlimit:4;stroke-dasharray:none"
         cx="113.13708"
         cy="87.056862"
         rx="11.111678"
         ry="17.172592" />
      <g
         style="stroke:#535353;stroke-opacity:1"
         transform="matrix(0.99202526,-0.12603922,0.12603922,0.99202526,-100.21414,-26.322478)"
         id="g3788">
        <path
           style="fill:none;stroke:#535353;stroke-width:3;stroke-linecap:round;stroke-linejoin:miter;stroke-miterlimit:4;stroke-dasharray:none;stroke-opacity:1"
           d="m 195.96959,151.30611 c 0,0 -1.47462,16.22927 -7.78807,18.5863"
           id="path3765"
           inkscape:connector-curvature="0"
           sodipodi:nodetypes="cc" />
        <path
           sodipodi:nodetypes="cc"
           inkscape:connector-curvature="0"
           id="path3786"
           d="m 195.80643,151.56319 c 0,0 -3.70358,15.86969 1.54841,20.09246"
           style="fill:none;stroke:#535353;stroke-width:3;stroke-linecap:round;stroke-linejoin:miter;stroke-miterlimit:4;stroke-dasharray:none;stroke-opacity:1" />
      </g>
    </g>
  </g>
</svg>
